<?xml version="1.0" standalone="no"?>
<!DOCTYPE svg PUBLIC "-//W3C//DTD SVG 20010904//EN"
 "http://www.w3.org/TR/2001/REC-SVG-20010904/DTD/svg10.dtd">
<svg version="1.0" xmlns="http://www.w3.org/2000/svg"
 width="2000.000000pt" height="2000.000000pt" viewBox="0 0 2000.000000 2000.000000"
 preserveAspectRatio="xMidYMid meet">

<g transform="translate(0.000000,2000.000000) scale(0.100000,-0.100000)"
fill="#000000" stroke="none">
<path d="M7998 18912 c-1039 -592 -1888 -1079 -1888 -1082 0 -3 851 -502 1890
-1108 l1890 -1102 1875 1082 c1031 595 1875 1085 1875 1088 0 4 -3646 2139
-3734 2186 -19 10 -243 -115 -1908 -1064z"/>
<path d="M14009 17290 c-19 -16 -890 -518 -1935 -1115 -1044 -598 -1902 -1090
-1907 -1094 -10 -9 31 -4813 41 -4823 4 -4 931 -547 2060 -1207 l2052 -1201
1930 1147 c1062 631 1930 1150 1930 1153 0 3 -930 510 -2067 1126 l-2068 1121
4 2462 c2 1353 2 2461 0 2461 -2 -1 -20 -14 -40 -30z"/>
<path d="M5745 17301 c-3 -6 4 -1116 15 -2468 18 -2151 19 -2459 6 -2468 -8
-6 -935 -526 -2060 -1155 -1125 -630 -2046 -1147 -2046 -1150 0 -3 855 -502
1900 -1108 l1900 -1102 2047 1191 c1127 654 2052 1194 2057 1199 5 5 5 1045 0
2431 l-9 2422 -1885 1099 c-1037 604 -1893 1103 -1902 1108 -11 7 -19 7 -23 1z"/>
<path d="M3230 16190 l-1915 -1097 4 -1539 c2 -847 7 -1857 10 -2245 l6 -706
1886 1076 c1037 592 1895 1083 1907 1091 l22 15 -2 2251 -3 2251 -1915 -1097z"/>
<path d="M14651 17216 c-9 -10 -6 -577 9 -2222 11 -1215 24 -2212 28 -2216 4
-3 858 -472 1897 -1041 l1890 -1034 7 1516 c4 834 7 1806 5 2160 l-2 644
-1895 1094 c-1042 602 -1902 1098 -1911 1103 -12 7 -20 5 -28 -4z"/>
<path d="M7835 8538 c-1144 -655 -2085 -1191 -2091 -1191 -9 0 -13 -296 -18
-1106 -3 -608 -9 -1610 -12 -2225 l-6 -1119 53 30 c30 17 971 529 2091 1137
l2038 1106 2022 -1126 c1113 -619 2042 -1137 2066 -1150 l42 -25 -2 2232 -3
2232 -2040 1194 c-1122 657 -2044 1197 -2050 1198 -5 2 -946 -532 -2090 -1187z"/>
<path d="M18471 9611 c-13 -9 -879 -527 -1925 -1152 l-1901 -1136 -2 -654 c-2
-360 1 -1350 5 -2200 l7 -1547 1930 1072 1930 1073 -4 1579 c-2 868 -7 1895
-10 2280 l-6 701 -24 -16z"/>
<path d="M1290 9507 c0 -18 9 -1027 20 -2243 20 -2203 20 -2209 41 -2223 31
-22 3714 -2099 3716 -2097 7 6 82 4361 76 4367 -19 19 -3825 2229 -3838 2229
-10 0 -15 -10 -15 -33z"/>
<path d="M7947 3441 c-1071 -580 -1947 -1058 -1947 -1061 0 -3 887 -508 1970
-1123 l1970 -1117 1865 1107 c1026 609 1865 1110 1865 1113 0 4 -3131 1777
-3720 2106 l-55 31 -1948 -1056z"/>
</g>
</svg>
